# xmcd
#
# Track frame offsets:
# 150
# 13156
# 23873
# 34819
# 45946
# 55919
# 71822
# 84023
# 95526
# 103869
# 115596
# 127397
#
# Disc length: 1839 seconds
#
#
# Revision: 1
# Processed by: cddbd v1.5.2PL0 Copyright (c) Steve Scherf et al.
# Submitted via: FreeRIP 2.951 
#
DISCID=9b072d0c
DTITLE=COUNTRY GENTLEMEN - Joe's Last Train
DYEAR=1900
DGENRE=Bluegrass
TTITLE0=JOE'S LAST TRAIN
TTITLE1=AGES AND AGES AGO
TTITLE2=IN MY YOUNGER DAYS
TTITLE3=PAMELA BROWN
TTITLE4=CRYIN' HOLY
TTITLE5=THIS LAND MUST DIE
TTITLE6=BLOODY MARY MORNING
TTITLE7=GOIN' HOME
TTITLE8=TEXAS CHILI
TTITLE9=FREE AS THE WIND
TTITLE10=DIXIELAND FOR ME
TTITLE11=LORD DON'TLEAVE ME HERE
EXTD=
EXTT0=
EXTT1=
EXTT2=
EXTT3=
EXTT4=
EXTT5=
EXTT6=
EXTT7=
EXTT8=
EXTT9=
EXTT10=
EXTT11=
PLAYORDER=
